<svg width="20" height="20" viewBox="0 0 20 20" fill="none" xmlns="http://www.w3.org/2000/svg">
<path d="M6.93 3.53H6.76C6.8535 3.53 6.93 3.4535 6.93 3.36V3.53H13.39V3.36C13.39 3.4535 13.4665 3.53 13.56 3.53H13.39V5.06H14.92V3.36C14.92 2.60988 14.3101 2 13.56 2H6.76C6.00987 2 5.4 2.60988 5.4 3.36V5.06H6.93V3.53ZM17.64 5.06H2.68C2.30387 5.06 2 5.36387 2 5.74V6.42C2 6.5135 2.0765 6.59 2.17 6.59H3.4535L3.97838 17.7038C4.01238 18.4284 4.61162 19 5.33625 19H14.9838C15.7105 19 16.3076 18.4305 16.3416 17.7038L16.8665 6.59H18.15C18.2435 6.59 18.32 6.5135 18.32 6.42V5.74C18.32 5.36387 18.0161 5.06 17.64 5.06ZM14.8201 17.47H5.49988L4.98563 6.59H15.3344L14.8201 17.47Z" fill="#2D80E2"/>
</svg>
