<svg width="20" height="20" viewBox="0 0 20 20" fill="none" xmlns="http://www.w3.org/2000/svg">
<path d="M9.15667 3.68665H3.59037C3.16858 3.68665 2.76406 3.8542 2.46581 4.15245C2.16756 4.45071 2 4.85522 2 5.27702V16.4096C2 16.8314 2.16756 17.2359 2.46581 17.5342C2.76406 17.8324 3.16858 18 3.59037 18H14.723C15.1448 18 15.5493 17.8324 15.8475 17.5342C16.1458 17.2359 16.3133 16.8314 16.3133 16.4096V10.8433" stroke="#2D80E2" stroke-width="1.5" stroke-linecap="round" stroke-linejoin="round"/>
<path d="M15.1204 2.49406C15.4368 2.17772 15.8658 2 16.3132 2C16.7606 2 17.1897 2.17772 17.506 2.49406C17.8223 2.81041 18.0001 3.23946 18.0001 3.68684C18.0001 4.13422 17.8223 4.56328 17.506 4.87962L9.95174 12.4339L6.771 13.2291L7.56618 10.0483L15.1204 2.49406Z" stroke="#2D80E2" stroke-width="1.5" stroke-linecap="round" stroke-linejoin="round"/>
</svg>
